<svg id="Layer_1" data-name="Layer 1" xmlns="http://www.w3.org/2000/svg" xmlns:xlink="http://www.w3.org/1999/xlink" viewBox="0 0 512 341"><defs><style>.cls-1{fill:none;}.cls-2{fill:#00a3a1;}.cls-3{clip-path:url(#clip-path);}.cls-4{fill:#fff;}</style><clipPath id="clip-path"><rect class="cls-1" x="98.48" y="1" width="315.03" height="339"/></clipPath></defs><title>Icon_512x341px_V1</title><rect class="cls-2" x="-4" y="-2.66" width="520" height="346.33"/><g class="cls-3"><path class="cls-4" d="M260.4,15.63V1h-8.8V15.63c-66.73,1.42-124.34,47.93-153.12,115.5,9.69-10.21,28.4-17.11,49.91-17.11,26.18,0,48.16,10.24,54.83,24.16,6.09-12.76,25.1-22.4,48.38-23.92v17h8.8v-17c23.28,1.52,42.27,11.16,48.38,23.92,6.65-13.92,28.65-24.16,54.83-24.16,21.52,0,40.22,6.9,49.91,17.11C384.74,63.56,327.12,17.05,260.4,15.63"/><path class="cls-4" d="M276.54,162.46a18.16,18.16,0,1,1-18.16-18.16,18.16,18.16,0,0,1,18.16,18.16"/><path class="cls-4" d="M224.6,166.7a16.76,16.76,0,1,1-16.76-16.79A16.77,16.77,0,0,1,224.6,166.7"/><path class="cls-4" d="M323.57,166.7a16.77,16.77,0,1,1-16.77-16.79,16.78,16.78,0,0,1,16.77,16.79"/><path class="cls-4" d="M337.86,238c-1-8.9-3.27-26.13-4.39-36.19-1.23-11-6.08-13.83-13.55-13.82H293.68a15.13,15.13,0,0,0-7.3,1.5c2.32,3,3.76,7.14,4.36,12.54.63,5.61,1.59,13.35,2.52,20.84.83,6.57,1.6,12.78,2.09,17.17.1.85.2,1.72.31,2.57.75,6.25,1.45,12.15,0,16.39a13.54,13.54,0,0,1-6.79,7.44c2.06,16.24,4,32.72,5.86,48.36.7,5.87.5,14.74,3.23,17.12,1.11,1,16.66,1,17.76,0,2.73-2.38,2.54-11.25,3.23-17.12,1.91-16,3.89-32.9,6-49.5.23-1.76.29-4,.47-4.17.67-.72,3-.43,5.07-.92,3.43-.8,6.72-2.77,7.86-6,1.27-3.61.24-10-.46-16.19"/><path class="cls-4" d="M221.15,259c-1.5-4.24-.79-10.14,0-16.39.11-.85.21-1.72.31-2.57.49-4.39,1.26-10.59,2.09-17.17.93-7.48,1.9-15.23,2.52-20.85.55-4.83,1.75-8.68,3.67-11.57-2.25-1.83-5.2-2.47-8.74-2.46H194.72c-7.47,0-12.31,2.81-13.54,13.82-1.12,10.07-3.38,27.29-4.4,36.19-.7,6.17-1.73,12.59-.46,16.19,1.15,3.25,4.44,5.22,7.86,6,2.09.49,4.4.2,5.09.92.17.19.23,2.41.45,4.16,2.12,16.6,4.11,33.5,6,49.51.7,5.87.51,14.74,3.24,17.12,1.09,1,16.65,1,17.75,0,2.73-2.38,2.54-11.25,3.23-17.12,1.91-16,3.9-32.91,6-49.51a.35.35,0,0,0,0-.06,13,13,0,0,1-4.82-6.23"/><path class="cls-4" d="M291.5,257.57c1.33-3.78.25-10.53-.48-17-1.07-9.36-3.45-27.45-4.63-38C285.1,191,280,188,272.18,188H244.59c-7.84,0-12.93,3-14.21,14.53-1.19,10.57-3.57,28.66-4.62,38-.73,6.48-1.82,13.23-.48,17,1.19,3.41,4.65,5.48,8.25,6.32,2.19.51,4.62.21,5.34,1,.18.19.25,2.53.48,4.37,2.22,17.44,4.31,35.19,6.31,52,.74,6.17.53,15.48,3.4,18,.58.51,4.95.76,9.32.76s8.76-.25,9.33-.76c2.87-2.51,2.67-11.82,3.4-18,2-16.82,4.09-34.57,6.32-52a42.31,42.31,0,0,1,.48-4.37c.71-.77,3.13-.47,5.34-1,3.59-.84,7-2.91,8.25-6.32"/></g></svg>